<?xml version="1.0" standalone="no"?>
<!DOCTYPE svg PUBLIC "-//W3C//DTD SVG 20010904//EN"
 "http://www.w3.org/TR/2001/REC-SVG-20010904/DTD/svg10.dtd">
<svg version="1.0" xmlns="http://www.w3.org/2000/svg"
 width="1024.000000pt" height="1024.000000pt" viewBox="0 0 1024.000000 1024.000000"
 preserveAspectRatio="xMidYMid meet">
<metadata>
Created by potrace 1.11, written by Peter Selinger 2001-2013
</metadata>
<g transform="translate(0.000000,1024.000000) scale(0.100000,-0.100000)"
fill="#000000" stroke="none">
<path d="M2588 9465 c-2 -2 -22 -5 -44 -8 -319 -44 -597 -305 -664 -626 -18
-82 -19 -262 -19 -4070 -1 -3336 1 -3982 12 -3978 12 5 910 526 1217 707 102
60 342 200 1500 875 168 97 354 206 413 241 59 35 112 64 117 64 6 0 157 -86
337 -191 180 -106 342 -200 360 -210 63 -36 98 -57 178 -104 44 -26 94 -56
112 -66 18 -10 167 -97 333 -194 166 -97 315 -184 333 -194 18 -10 84 -49 147
-86 63 -37 129 -75 145 -85 17 -9 275 -160 575 -335 300 -175 560 -326 578
-337 17 -10 48 -27 68 -38 19 -11 46 -28 60 -37 14 -8 27 -13 30 -10 8 8 7
7905 -1 7974 -30 255 -196 494 -431 619 -80 43 -101 50 -212 74 -79 17 -221
18 -2612 18 -1391 0 -2530 -2 -2532 -3z m4839 -815 c72 0 85 -3 110 -24 l28
-24 1 -3196 c0 -1758 -4 -3196 -8 -3196 -5 0 -101 54 -214 120 -113 66 -208
120 -211 120 -3 0 -18 9 -33 20 -26 19 -92 57 -200 118 -25 13 -49 28 -55 32
-5 4 -53 32 -105 62 -113 66 -251 146 -375 218 -49 29 -103 60 -120 70 -16 9
-82 48 -145 85 -63 37 -140 81 -170 98 -30 16 -59 33 -65 37 -8 7 -548 321
-655 382 -19 11 -44 27 -55 34 -11 8 -25 14 -32 14 -6 0 -267 -149 -580 -331
-312 -183 -581 -340 -598 -349 -30 -18 -723 -421 -1044 -609 -96 -55 -177
-101 -181 -101 -4 0 -13 -7 -20 -15 -7 -8 -15 -15 -19 -15 -5 0 -7 6317 -2
6381 0 9 10 27 20 40 19 24 22 24 263 29 178 4 3462 4 4465 0z"/>
</g>
</svg>
